RBDS08runT25_grf
version=1
nRows=37
nColumns=19
inDegrees=no
endheader
time	ground_force_r_vx	ground_force_r_vy	ground_force_r_vz	ground_force_r_px	ground_force_r_py	ground_force_r_pz	ground_force_r_mx	ground_force_r_my	ground_force_r_mz	ground_force_l_vx	ground_force_l_vy	ground_force_l_vz	ground_force_l_px	ground_force_l_py	ground_force_l_pz	ground_force_l_mx	ground_force_l_my	ground_force_l_mz
      0.00000000	      0.00000000	      0.00000000	      0.00000000	      0.00000000	      0.00000000	      0.00000000	      0.00000000	      0.00000000	      0.00000000	      0.00000000	      0.00000000	      0.00000000	      0.00000000	      0.00000000	      0.00000000	      0.00000000	      0.00000000	      0.00000000
      0.00100000	    -19.86979492	     12.14593289	      0.40888778	      0.67258157	      0.00000000	      0.31362126	     -0.00000000	     -0.36441942	     -0.00000000	      0.00000000	      0.00000000	      0.00000000	      0.00000000	      0.00000000	      0.00000000	      0.00000000	      0.00000000	      0.00000000
      0.00200000	    -39.73958984	     24.29186579	      0.81777557	      1.34516314	      0.00000000	      0.62724253	     -0.00000000	     -0.72883885	     -0.00000000	      0.00000000	      0.00000000	      0.00000000	      0.00000000	      0.00000000	      0.00000000	      0.00000000	      0.00000000	      0.00000000
      0.00300000	    -59.60938476	     36.43779868	      1.22666335	      2.01774471	      0.00000000	      0.94086379	     -0.00000000	     -1.09325827	     -0.00000000	      0.00000000	      0.00000000	      0.00000000	      0.00000000	      0.00000000	      0.00000000	      0.00000000	      0.00000000	      0.00000000
      0.00400000	    -65.75010409	     53.44973797	      1.23853019	      2.24254163	      0.00000000	      1.04571081	     -0.00000000	     -1.13654381	     -0.00000000	      0.00000000	      0.00000000	      0.00000000	      0.00000000	      0.00000000	      0.00000000	      0.00000000	      0.00000000	      0.00000000
      0.00500000	    -65.02628562	     72.89468046	      1.05188656	      2.24344623	      0.00000000	      1.04617070	      0.00000000	     -1.01926241	      0.00000000	      0.00000000	      0.00000000	      0.00000000	      0.00000000	      0.00000000	      0.00000000	      0.00000000	      0.00000000	      0.00000000
      0.00600000	    -64.30246715	     92.33962295	      0.86524292	      2.24435083	      0.00000000	      1.04663060	      0.00000000	     -0.90198101	      0.00000000	      0.00000000	      0.00000000	      0.00000000	      0.00000000	      0.00000000	      0.00000000	      0.00000000	      0.00000000	      0.00000000
      0.00700000	    -63.63134543	    111.78390062	      0.67905754	      2.24525319	      0.00000000	      1.04708684	      0.00000000	     -0.78192673	      0.00000000	      0.00000000	      0.00000000	      0.00000000	      0.00000000	      0.00000000	      0.00000000	      0.00000000	      0.00000000	      0.00000000
      0.00800000	    -63.06561720	    131.22684865	      0.49378865	      2.24615107	      0.00000000	      1.04753577	      0.00000000	     -0.65632671	      0.00000000	      0.00000000	      0.00000000	      0.00000000	      0.00000000	      0.00000000	      0.00000000	      0.00000000	      0.00000000	      0.00000000
      0.00900000	    -62.49988897	    150.66979669	      0.30851975	      2.24704896	      0.00000000	      1.04798471	      0.00000000	     -0.53072669	      0.00000000	      0.00000000	      0.00000000	      0.00000000	      0.00000000	      0.00000000	      0.00000000	      0.00000000	      0.00000000	      0.00000000
      0.01000000	    -61.93416074	    170.11274473	      0.12325086	      2.24794684	      0.00000000	      1.04843364	      0.00000000	     -0.40512667	      0.00000000	      0.00000000	      0.00000000	      0.00000000	      0.00000000	      0.00000000	      0.00000000	      0.00000000	      0.00000000	      0.00000000
      0.01100000	    -61.56453275	    189.54062798	     -0.05828651	      2.24881464	      0.00000000	      1.04886175	      0.00000000	     -0.27548789	      0.00000000	      0.00000000	      0.00000000	      0.00000000	      0.00000000	      0.00000000	      0.00000000	      0.00000000	      0.00000000	      0.00000000
      0.01200000	    -61.19490476	    208.96851124	     -0.23982388	      2.24968244	      0.00000000	      1.04928986	      0.00000000	     -0.14584912	      0.00000000	      0.00000000	      0.00000000	      0.00000000	      0.00000000	      0.00000000	      0.00000000	      0.00000000	      0.00000000	      0.00000000
      0.01300000	    -60.82527678	    228.39639450	     -0.42136124	      2.25055024	      0.00000000	      1.04971797	      0.00000000	     -0.01621034	      0.00000000	      0.00000000	      0.00000000	      0.00000000	      0.00000000	      0.00000000	      0.00000000	      0.00000000	      0.00000000	      0.00000000
      0.01400000	    -60.60928062	    247.80772096	     -0.59918799	      2.25138274	      0.00000000	      1.05012616	      0.00000000	      0.11338929	      0.00000000	      0.00000000	      0.00000000	      0.00000000	      0.00000000	      0.00000000	      0.00000000	      0.00000000	      0.00000000	      0.00000000
      0.01500000	    -60.47010038	    267.21076903	     -0.77515943	      2.25219758	      0.00000000	      1.05052440	      0.00000000	      0.24296935	      0.00000000	      0.00000000	      0.00000000	      0.00000000	      0.00000000	      0.00000000	      0.00000000	      0.00000000	      0.00000000	      0.00000000
      0.01600000	    -60.33092013	    286.61381709	     -0.95113087	      2.25301242	      0.00000000	      1.05092263	      0.00000000	      0.37254941	      0.00000000	      0.00000000	      0.00000000	      0.00000000	      0.00000000	      0.00000000	      0.00000000	      0.00000000	      0.00000000	      0.00000000
      0.01700000	    -60.27821243	    306.00524875	     -1.12475343	      2.25380237	      0.00000000	      1.05130827	      0.00000000	      0.50084812	      0.00000000	      0.00000000	      0.00000000	      0.00000000	      0.00000000	      0.00000000	      0.00000000	      0.00000000	      0.00000000	      0.00000000
      0.01800000	    -60.39844981	    325.37344756	     -1.29367824	      2.25454256	      0.00000000	      1.05166872	      0.00000000	      0.62658411	      0.00000000	      0.00000000	      0.00000000	      0.00000000	      0.00000000	      0.00000000	      0.00000000	      0.00000000	      0.00000000	      0.00000000
      0.01900000	    -60.51868719	    344.74164638	     -1.46260304	      2.25528275	      0.00000000	      1.05202918	      0.00000000	      0.75232010	      0.00000000	      0.00000000	      0.00000000	      0.00000000	      0.00000000	      0.00000000	      0.00000000	      0.00000000	      0.00000000	      0.00000000
      0.02000000	    -60.63892456	    364.10984520	     -1.63152784	      2.25602294	      0.00000000	      1.05238964	      0.00000000	      0.87805609	      0.00000000	      0.00000000	      0.00000000	      0.00000000	      0.00000000	      0.00000000	      0.00000000	      0.00000000	      0.00000000	      0.00000000
      0.02100000	    -61.04043786	    383.43002224	     -1.79216265	      2.25666856	      0.00000000	      1.05270584	      0.00000000	      0.99660236	      0.00000000	      0.00000000	      0.00000000	      0.00000000	      0.00000000	      0.00000000	      0.00000000	      0.00000000	      0.00000000	      0.00000000
      0.02200000	    -61.44195115	    402.75019927	     -1.95279746	      2.25731419	      0.00000000	      1.05302205	      0.00000000	      1.11514863	      0.00000000	      0.00000000	      0.00000000	      0.00000000	      0.00000000	      0.00000000	      0.00000000	      0.00000000	      0.00000000	      0.00000000
      0.02300000	    -61.84346444	    422.07037631	     -2.11343227	      2.25795982	      0.00000000	      1.05333826	      0.00000000	      1.23369489	      0.00000000	      0.00000000	      0.00000000	      0.00000000	      0.00000000	      0.00000000	      0.00000000	      0.00000000	      0.00000000	      0.00000000
      0.02400000	    -62.44122055	    441.34626778	     -2.26784711	      2.25853064	      0.00000000	      1.05362174	      0.00000000	      1.34558838	      0.00000000	      0.00000000	      0.00000000	      0.00000000	      0.00000000	      0.00000000	      0.00000000	      0.00000000	      0.00000000	      0.00000000
      0.02500000	    -63.13709805	    460.60001648	     -2.41915197	      2.25906405	      0.00000000	      1.05388884	      0.00000000	      1.45415546	      0.00000000	      0.00000000	      0.00000000	      0.00000000	      0.00000000	      0.00000000	      0.00000000	      0.00000000	      0.00000000	      0.00000000
      0.02600000	    -63.83297556	    479.85376517	     -2.57045683	      2.25959747	      0.00000000	      1.05415595	      0.00000000	      1.56272255	      0.00000000	      0.00000000	      0.00000000	      0.00000000	      0.00000000	      0.00000000	      0.00000000	      0.00000000	      0.00000000	      0.00000000
      0.02700000	    -64.62793061	    499.07710786	     -2.71839461	      2.26008844	      0.00000000	      1.05440564	      0.00000000	      1.66725003	      0.00000000	      0.00000000	      0.00000000	      0.00000000	      0.00000000	      0.00000000	      0.00000000	      0.00000000	      0.00000000	      0.00000000
      0.02800000	    -65.62104076	    518.23963854	     -2.85959822	      2.26049453	      0.00000000	      1.05462052	      0.00000000	      1.76369828	      0.00000000	      0.00000000	      0.00000000	      0.00000000	      0.00000000	      0.00000000	      0.00000000	      0.00000000	      0.00000000	      0.00000000
      0.02900000	    -66.61415091	    537.40216922	     -3.00080183	      2.26090063	      0.00000000	      1.05483539	      0.00000000	      1.86014654	      0.00000000	      0.00000000	      0.00000000	      0.00000000	      0.00000000	      0.00000000	      0.00000000	      0.00000000	      0.00000000	      0.00000000
      0.03000000	    -67.60726105	    556.56469990	     -3.14200543	      2.26130673	      0.00000000	      1.05505026	      0.00000000	      1.95659479	      0.00000000	      0.00000000	      0.00000000	      0.00000000	      0.00000000	      0.00000000	      0.00000000	      0.00000000	      0.00000000	      0.00000000
      0.03100000	    -68.88916267	    575.60457612	     -3.27276279	      2.26157313	      0.00000000	      1.05521152	      0.00000000	      2.03949429	      0.00000000	      0.00000000	      0.00000000	      0.00000000	      0.00000000	      0.00000000	      0.00000000	      0.00000000	      0.00000000	      0.00000000
      0.03200000	    -70.17106429	    594.64445235	     -3.40352015	      2.26183954	      0.00000000	      1.05537278	      0.00000000	      2.12239379	      0.00000000	      0.00000000	      0.00000000	      0.00000000	      0.00000000	      0.00000000	      0.00000000	      0.00000000	      0.00000000	      0.00000000
      0.03300000	    -71.45296591	    613.68432858	     -3.53427751	      2.26210594	      0.00000000	      1.05553405	      0.00000000	      2.20529329	      0.00000000	      0.00000000	      0.00000000	      0.00000000	      0.00000000	      0.00000000	      0.00000000	      0.00000000	      0.00000000	      0.00000000
      0.03400000	    -72.91383399	    632.61735773	     -3.65826808	      2.26227281	      0.00000000	      1.05565978	      0.00000000	      2.27869293	      0.00000000	      0.00000000	      0.00000000	      0.00000000	      0.00000000	      0.00000000	      0.00000000	      0.00000000	      0.00000000	      0.00000000
      0.03500000	    -74.46418530	    651.49696335	     -3.77887525	      2.26238991	      0.00000000	      1.05576776	      0.00000000	      2.34734265	      0.00000000	      0.00000000	      0.00000000	      0.00000000	      0.00000000	      0.00000000	      0.00000000	      0.00000000	      0.00000000	      0.00000000
      0.03600000	    -76.01453660	    670.37656896	     -3.89948243	      2.26250701	      0.00000000	      1.05587573	      0.00000000	      2.41599236	      0.00000000	      0.00000000	      0.00000000	      0.00000000	      0.00000000	      0.00000000	      0.00000000	      0.00000000	      0.00000000	      0.00000000
